<svg width="16" height="16" viewBox="0 0 16 16" fill="none" xmlns="http://www.w3.org/2000/svg">
<g clip-path="url(#clip0_155_66497)">
<path d="M6.60008 2.82603C7.05897 2.71862 7.52879 2.66492 8.00008 2.66603C12.6667 2.66603 15.3334 7.99937 15.3334 7.99937C14.9287 8.75644 14.4461 9.46919 13.8934 10.126M9.41341 9.4127C9.23032 9.6092 9.00951 9.7668 8.76418 9.87611C8.51885 9.98543 8.25402 10.0442 7.98547 10.0489C7.71693 10.0537 7.45019 10.0043 7.20115 9.90369C6.95212 9.8031 6.7259 9.65338 6.53598 9.46347C6.34606 9.27355 6.19634 9.04733 6.09575 8.79829C5.99516 8.54926 5.94577 8.28251 5.9505 8.01397C5.95524 7.74543 6.01402 7.4806 6.12333 7.23526C6.23264 6.98993 6.39025 6.76913 6.58675 6.58603M11.9601 11.9594C10.8205 12.828 9.43282 13.3093 8.00008 13.3327C3.33341 13.3327 0.666748 7.99937 0.666748 7.99937C1.49601 6.45396 2.64617 5.10377 4.04008 4.03937L11.9601 11.9594Z" stroke="black" stroke-width="1.2" stroke-linecap="round" stroke-linejoin="round"/>
<path d="M0.666748 0.666016L15.3334 15.3327" stroke="black" stroke-width="1.2" stroke-linecap="round" stroke-linejoin="round"/>
</g>
<defs>
<clipPath id="clip0_155_66497">
<rect width="16" height="16" fill="white"/>
</clipPath>
</defs>
</svg>
