<svg width="22" height="22" viewBox="0 0 22 22" fill="none" xmlns="http://www.w3.org/2000/svg">
<g clip-path="url(#clip0_418_13029)">
<path d="M16.3258 4.09754C16.2525 4.09754 16.1791 4.07921 16.115 4.04254C14.355 3.13504 12.8333 2.75004 11.0091 2.75004C9.19413 2.75004 7.4708 3.18087 5.9033 4.04254C5.6833 4.16171 5.4083 4.07921 5.27997 3.85921C5.1608 3.63921 5.2433 3.35504 5.4633 3.23587C7.1683 2.31004 9.0383 1.83337 11.0091 1.83337C12.9616 1.83337 14.6666 2.26421 16.5366 3.22671C16.7658 3.34587 16.8483 3.62087 16.7291 3.84087C16.6466 4.00587 16.4908 4.09754 16.3258 4.09754ZM3.2083 8.91004C3.11663 8.91004 3.02497 8.88254 2.94247 8.82754C2.73163 8.68087 2.6858 8.39671 2.83247 8.18587C3.73997 6.90254 4.89497 5.89421 6.26997 5.18837C9.1483 3.70337 12.8333 3.69421 15.7208 5.17921C17.0958 5.88504 18.2508 6.88421 19.1583 8.15837C19.305 8.36004 19.2591 8.65337 19.0483 8.80004C18.8375 8.94671 18.5533 8.90087 18.4066 8.69004C17.5816 7.53504 16.5366 6.62754 15.2991 5.99504C12.6683 4.64754 9.30413 4.64754 6.68247 6.00421C5.4358 6.64587 4.3908 7.56254 3.5658 8.71754C3.49247 8.84587 3.35497 8.91004 3.2083 8.91004ZM8.93747 19.9742C8.8183 19.9742 8.69913 19.9284 8.61663 19.8367C7.81913 19.0392 7.3883 18.5259 6.77413 17.4167C6.14163 16.2892 5.81163 14.9142 5.81163 13.4384C5.81163 10.7159 8.13997 8.49754 11 8.49754C13.86 8.49754 16.1883 10.7159 16.1883 13.4384C16.1883 13.695 15.9866 13.8967 15.73 13.8967C15.4733 13.8967 15.2716 13.695 15.2716 13.4384C15.2716 11.22 13.3558 9.41421 11 9.41421C8.64413 9.41421 6.7283 11.22 6.7283 13.4384C6.7283 14.7584 7.02163 15.9775 7.5808 16.9675C8.16747 18.0217 8.5708 18.4709 9.27663 19.1859C9.4508 19.3692 9.4508 19.6534 9.27663 19.8367C9.1758 19.9284 9.05663 19.9742 8.93747 19.9742ZM15.51 18.2784C14.4191 18.2784 13.4566 18.0034 12.6683 17.4625C11.3025 16.5367 10.4866 15.0334 10.4866 13.4384C10.4866 13.1817 10.6883 12.98 10.945 12.98C11.2016 12.98 11.4033 13.1817 11.4033 13.4384C11.4033 14.7309 12.0633 15.95 13.1816 16.7017C13.8325 17.1417 14.5933 17.3525 15.51 17.3525C15.73 17.3525 16.0966 17.325 16.4633 17.2609C16.7108 17.215 16.9491 17.38 16.995 17.6367C17.0408 17.8842 16.8758 18.1225 16.6191 18.1684C16.0966 18.2692 15.6383 18.2784 15.51 18.2784ZM13.6675 20.1667C13.6308 20.1667 13.585 20.1575 13.5483 20.1484C12.0908 19.745 11.1375 19.2042 10.1383 18.2234C8.85497 16.9492 8.14913 15.2534 8.14913 13.4384C8.14913 11.9534 9.41413 10.7434 10.9725 10.7434C12.5308 10.7434 13.7958 11.9534 13.7958 13.4384C13.7958 14.4192 14.6483 15.2167 15.7025 15.2167C16.7566 15.2167 17.6091 14.4192 17.6091 13.4384C17.6091 9.98254 14.63 7.17754 10.9633 7.17754C8.35997 7.17754 5.97663 8.62587 4.90413 10.8717C4.54663 11.6142 4.3633 12.485 4.3633 13.4384C4.3633 14.1534 4.42747 15.2809 4.97747 16.7475C5.06913 16.9859 4.94997 17.2517 4.71163 17.3342C4.4733 17.4259 4.20747 17.2975 4.12497 17.0684C3.6758 15.8675 3.4558 14.6759 3.4558 13.4384C3.4558 12.3384 3.66663 11.3392 4.07913 10.4684C5.2983 7.91087 8.00247 6.25171 10.9633 6.25171C15.1341 6.25171 18.5258 9.46921 18.5258 13.4292C18.5258 14.9142 17.2608 16.1242 15.7025 16.1242C14.1441 16.1242 12.8791 14.9142 12.8791 13.4292C12.8791 12.4484 12.0266 11.6509 10.9725 11.6509C9.9183 11.6509 9.0658 12.4484 9.0658 13.4292C9.0658 14.9967 9.6708 16.4634 10.78 17.5634C11.6508 18.425 12.485 18.9017 13.7775 19.2592C14.025 19.3234 14.1625 19.58 14.0983 19.8184C14.0525 20.0292 13.86 20.1667 13.6675 20.1667Z" fill="#222222"/>
</g>
<defs>
<clipPath id="clip0_418_13029">
<rect width="22" height="22" fill="white"/>
</clipPath>
</defs>
</svg>
