<svg width="22" height="22" viewBox="0 0 22 22" fill="none" xmlns="http://www.w3.org/2000/svg">
<g clip-path="url(#clip0_104_372)">
<path d="M16.3258 4.09766C16.2525 4.09766 16.1791 4.07933 16.115 4.04266C14.355 3.13516 12.8333 2.75016 11.0091 2.75016C9.19413 2.75016 7.4708 3.181 5.9033 4.04266C5.6833 4.16183 5.4083 4.07933 5.27997 3.85933C5.1608 3.63933 5.2433 3.35516 5.4633 3.236C7.1683 2.31016 9.0383 1.8335 11.0091 1.8335C12.9616 1.8335 14.6666 2.26433 16.5366 3.22683C16.7658 3.346 16.8483 3.621 16.7291 3.841C16.6466 4.006 16.4908 4.09766 16.3258 4.09766ZM3.2083 8.91016C3.11663 8.91016 3.02497 8.88266 2.94247 8.82766C2.73163 8.681 2.6858 8.39683 2.83247 8.186C3.73997 6.90266 4.89497 5.89433 6.26997 5.1885C9.1483 3.7035 12.8333 3.69433 15.7208 5.17933C17.0958 5.88516 18.2508 6.88433 19.1583 8.1585C19.305 8.36016 19.2591 8.6535 19.0483 8.80016C18.8375 8.94683 18.5533 8.901 18.4066 8.69016C17.5816 7.53516 16.5366 6.62766 15.2991 5.99516C12.6683 4.64766 9.30413 4.64766 6.68247 6.00433C5.4358 6.646 4.3908 7.56266 3.5658 8.71766C3.49247 8.846 3.35497 8.91016 3.2083 8.91016ZM8.93747 19.9743C8.8183 19.9743 8.69913 19.9285 8.61663 19.8368C7.81913 19.0393 7.3883 18.526 6.77413 17.4168C6.14163 16.2893 5.81163 14.9143 5.81163 13.4385C5.81163 10.716 8.13997 8.49766 11 8.49766C13.86 8.49766 16.1883 10.716 16.1883 13.4385C16.1883 13.6952 15.9866 13.8968 15.73 13.8968C15.4733 13.8968 15.2716 13.6952 15.2716 13.4385C15.2716 11.2202 13.3558 9.41433 11 9.41433C8.64413 9.41433 6.7283 11.2202 6.7283 13.4385C6.7283 14.7585 7.02163 15.9777 7.5808 16.9677C8.16747 18.0218 8.5708 18.471 9.27663 19.186C9.4508 19.3693 9.4508 19.6535 9.27663 19.8368C9.1758 19.9285 9.05663 19.9743 8.93747 19.9743ZM15.51 18.2785C14.4191 18.2785 13.4566 18.0035 12.6683 17.4627C11.3025 16.5368 10.4866 15.0335 10.4866 13.4385C10.4866 13.1818 10.6883 12.9802 10.945 12.9802C11.2016 12.9802 11.4033 13.1818 11.4033 13.4385C11.4033 14.731 12.0633 15.9502 13.1816 16.7018C13.8325 17.1418 14.5933 17.3527 15.51 17.3527C15.73 17.3527 16.0966 17.3252 16.4633 17.261C16.7108 17.2152 16.9491 17.3802 16.995 17.6368C17.0408 17.8843 16.8758 18.1227 16.6191 18.1685C16.0966 18.2693 15.6383 18.2785 15.51 18.2785ZM13.6675 20.1668C13.6308 20.1668 13.585 20.1577 13.5483 20.1485C12.0908 19.7452 11.1375 19.2043 10.1383 18.2235C8.85497 16.9493 8.14913 15.2535 8.14913 13.4385C8.14913 11.9535 9.41413 10.7435 10.9725 10.7435C12.5308 10.7435 13.7958 11.9535 13.7958 13.4385C13.7958 14.4193 14.6483 15.2168 15.7025 15.2168C16.7566 15.2168 17.6091 14.4193 17.6091 13.4385C17.6091 9.98266 14.63 7.17766 10.9633 7.17766C8.35997 7.17766 5.97663 8.626 4.90413 10.8718C4.54663 11.6143 4.3633 12.4852 4.3633 13.4385C4.3633 14.1535 4.42747 15.281 4.97747 16.7477C5.06913 16.986 4.94997 17.2518 4.71163 17.3343C4.4733 17.426 4.20747 17.2977 4.12497 17.0685C3.6758 15.8677 3.4558 14.676 3.4558 13.4385C3.4558 12.3385 3.66663 11.3393 4.07913 10.4685C5.2983 7.911 8.00247 6.25183 10.9633 6.25183C15.1341 6.25183 18.5258 9.46933 18.5258 13.4293C18.5258 14.9143 17.2608 16.1243 15.7025 16.1243C14.1441 16.1243 12.8791 14.9143 12.8791 13.4293C12.8791 12.4485 12.0266 11.651 10.9725 11.651C9.9183 11.651 9.0658 12.4485 9.0658 13.4293C9.0658 14.9968 9.6708 16.4635 10.78 17.5635C11.6508 18.4252 12.485 18.9018 13.7775 19.2593C14.025 19.3235 14.1625 19.5802 14.0983 19.8185C14.0525 20.0293 13.86 20.1668 13.6675 20.1668Z" fill="white"/>
</g>
<defs>
<clipPath id="clip0_104_372">
<rect width="22" height="22" fill="white"/>
</clipPath>
</defs>
</svg>
