<svg width="22" height="22" viewBox="0 0 22 22" fill="none" xmlns="http://www.w3.org/2000/svg">
<g opacity="0.8" clip-path="url(#clip0_104_375)">
<path d="M10.3312 5.8179C10.7115 5.47563 11.2888 5.47563 11.6691 5.8179L15.2525 9.0429C15.4632 9.23254 15.5835 9.50271 15.5835 9.7862V15.5833C15.5835 16.0896 15.1731 16.5 14.6668 16.5C14.1606 16.5 13.7502 16.0896 13.7502 15.5833V12C13.7502 11.4477 13.3024 11 12.7502 11H9.25016C8.69788 11 8.25016 11.4477 8.25016 12V15.5833C8.25016 16.0896 7.83976 16.5 7.3335 16.5C6.82724 16.5 6.41683 16.0896 6.41683 15.5833V9.7862C6.41683 9.50271 6.53715 9.23254 6.74786 9.0429L10.3312 5.8179ZM11.6691 3.35207C11.2888 3.00979 10.7115 3.00979 10.3312 3.35207L3.3107 9.67052C2.79118 10.1381 3.12193 11 3.82087 11C4.24206 11 4.5835 11.3414 4.5835 11.7626V17.3333C4.5835 17.8856 5.03121 18.3333 5.5835 18.3333H9.0835C9.63578 18.3333 10.0835 17.8856 10.0835 17.3333V13.75C10.0835 13.2437 10.4939 12.8333 11.0002 12.8333C11.5064 12.8333 11.9168 13.2437 11.9168 13.75V17.3333C11.9168 17.8856 12.3645 18.3333 12.9168 18.3333H16.4168C16.9691 18.3333 17.4168 17.8856 17.4168 17.3333V11.7626C17.4168 11.3414 17.7583 11 18.1795 11C18.8784 11 19.2091 10.1381 18.6896 9.67052L11.6691 3.35207Z" fill="white"/>
</g>
<defs>
<clipPath id="clip0_104_375">
<rect width="22" height="22" fill="white"/>
</clipPath>
</defs>
</svg>
