<svg width="16" height="16" viewBox="0 0 16 16" fill="none" xmlns="http://www.w3.org/2000/svg">
<path id="instagram" fill-rule="evenodd" clip-rule="evenodd" d="M8 0C5.82667 0 5.556 0.00933333 4.70133 0.0493333C1.79467 0.182667 0.181333 1.79467 0.048 4.70133C0.00933333 5.556 0 5.828 0 8C0 10.1733 0.00933333 10.4453 0.048 11.2987C0.181333 14.204 1.79467 15.8187 4.70133 15.952C5.556 15.9907 5.82667 16 8 16C10.1733 16 10.4453 15.9907 11.3 15.952C14.2013 15.8187 15.8213 14.2067 15.952 11.2987C15.9907 10.4453 16 10.1733 16 8C16 5.828 15.9907 5.556 15.952 4.70133C15.8213 1.79867 14.2067 0.181333 11.3 0.0493333C10.4453 0.00933333 10.1733 0 8 0ZM7.99995 1.44287C10.136 1.44287 10.3893 1.45087 11.2333 1.48954C13.4026 1.5882 14.4133 2.6162 14.5133 4.7682C14.5506 5.6122 14.5586 5.8642 14.5586 8.0002C14.5586 10.1362 14.5506 10.3895 14.5133 11.2322C14.4133 13.3829 13.404 14.4135 11.2333 14.5122C10.3893 14.5495 10.1373 14.5589 7.99995 14.5589C5.86395 14.5589 5.61062 14.5509 4.76795 14.5122C2.59462 14.4122 1.58795 13.3802 1.48795 11.2322C1.45062 10.3895 1.44128 10.1362 1.44128 8.0002C1.44128 5.8642 1.45062 5.61087 1.48795 4.7682C1.58662 2.61487 2.59728 1.58687 4.76795 1.4882C5.61062 1.44954 5.86395 1.44287 7.99995 1.44287ZM3.892 8C3.892 5.73067 5.732 3.892 8 3.892C10.268 3.892 12.108 5.732 12.108 8C12.108 10.2693 10.268 12.108 8 12.108C5.732 12.108 3.892 10.2693 3.892 8ZM8.00004 10.6668C6.52671 10.6668 5.33337 9.4735 5.33337 8.00016C5.33337 6.52816 6.52671 5.3335 8.00004 5.3335C9.47204 5.3335 10.668 6.52683 10.668 8.00016C10.668 9.4735 9.47204 10.6668 8.00004 10.6668ZM11.3093 3.73067C11.3093 3.2 11.74 2.77067 12.2693 2.77067C12.8013 2.77067 13.2307 3.2 13.2307 3.73067C13.2307 4.26133 12.8 4.69067 12.2693 4.69067C11.7387 4.69067 11.3093 4.26 11.3093 3.73067Z" fill="#515151"/>
</svg>
